<?xml version="1.0" standalone="no"?><!DOCTYPE svg PUBLIC "-//W3C//DTD SVG 1.1//EN" "http://www.w3.org/Graphics/SVG/1.1/DTD/svg11.dtd"><svg t="1719197942322" class="icon" viewBox="0 0 1024 1024" version="1.1" xmlns="http://www.w3.org/2000/svg" p-id="2699" xmlns:xlink="http://www.w3.org/1999/xlink" width="256" height="256"><path d="M806.912 100.352c-59.392-57.344-184.32 49.152-307.2 190.464l-188.416-38.912 4.096-4.096c6.144-8.192 6.144-18.432 0-26.624-6.144-6.144-18.432-6.144-24.576 0l-18.432 20.48L81.92 204.8c-18.432-4.096-36.864 4.096-40.96 24.576-4.096 20.48 6.144 34.816 24.576 47.104l286.72 200.704c-71.68 94.208-129.024 180.224-159.744 225.28h-2.048l-155.648-4.096c-20.48 0-34.816 16.384-34.816 36.864 0 0 81.92 47.104 116.736 83.968 34.816 36.864 81.92 120.832 81.92 120.832 20.48 0 34.816-16.384 34.816-36.864l-4.096-102.4c4.096-2.048 6.144-6.144 10.24-8.192-2.048-2.048 681.984-581.632 567.296-692.224z m-104.448 604.16l16.384-16.384c6.144-8.192 6.144-18.432 0-26.624-6.144-6.144-18.432-6.144-24.576 0l-49.152-219.136c-45.056 59.392-112.64 116.736-159.744 165.888l186.368 288.768c12.288 18.432 24.576 30.72 43.008 26.624 18.432-6.144 28.672-26.624 24.576-45.056l-36.864-174.08z m319.488-198.656l-116.736-161.792c-4.096-12.288-12.288-8.192-12.288 4.096v303.104h45.056v-137.216h79.872c4.096 0 8.192-4.096 4.096-8.192z m-219.136-32.768h-83.968c-4.096 0-8.192 4.096-4.096 8.192l120.832 161.792c4.096 12.288 12.288 8.192 12.288-4.096V335.872h-45.056v137.216z" fill="#000000" p-id="2700"></path></svg>